<!-- Generated by IcoMoon.io -->
<svg version="1.1" xmlns="http://www.w3.org/2000/svg" width="33" height="32" viewBox="0 0 33 32">
<title>astronaut</title>
<path fill="#4d5ae5" d="M31.512 4.196c-0.058-0.179-0.213-0.309-0.399-0.336l-1.772-0.258-0.793-1.606c-0.166-0.338-0.721-0.338-0.887 0l-0.793 1.606-1.772 0.258c-0.186 0.027-0.341 0.157-0.4 0.336-0.058 0.179-0.010 0.376 0.125 0.507l1.283 1.25-0.303 1.765c-0.032 0.186 0.045 0.373 0.196 0.484 0.154 0.112 0.355 0.126 0.521 0.038l1.585-0.834 1.585 0.834c0.072 0.038 0.152 0.057 0.231 0.057 0.102 0 0.205-0.032 0.291-0.094 0.152-0.111 0.229-0.298 0.196-0.484l-0.303-1.765 1.283-1.25c0.134-0.132 0.183-0.328 0.125-0.507zM29.228 5.427c-0.116 0.113-0.17 0.278-0.142 0.438l0.177 1.033-0.928-0.488c-0.072-0.038-0.151-0.057-0.231-0.057s-0.158 0.019-0.231 0.057l-0.928 0.488 0.177-1.033c0.028-0.16-0.026-0.324-0.142-0.438l-0.751-0.732 1.038-0.151c0.161-0.023 0.3-0.125 0.373-0.271l0.464-0.94 0.464 0.94c0.072 0.146 0.211 0.247 0.373 0.271l1.038 0.151-0.75 0.732z"></path>
<path fill="#4d5ae5" d="M26.095 19.035h-0.989v0.989h0.989v-0.989z"></path>
<path fill="#4d5ae5" d="M26.095 21.014h-0.989v0.989h0.989v-0.989z"></path>
<path fill="#4d5ae5" d="M27.084 20.024h-0.989v0.989h0.989v-0.989z"></path>
<path fill="#4d5ae5" d="M25.105 20.024h-0.989v0.989h0.989v-0.989z"></path>
<path fill="#4d5ae5" d="M22.632 24.477h-0.989v0.989h0.989v-0.989z"></path>
<path fill="#4d5ae5" d="M22.632 26.455h-0.989v0.989h0.989v-0.989z"></path>
<path fill="#4d5ae5" d="M23.621 25.466h-0.989v0.989h0.989v-0.989z"></path>
<path fill="#4d5ae5" d="M21.643 25.466h-0.989v0.989h0.989v-0.989z"></path>
<path fill="#4d5ae5" d="M16.696 22.498h-0.989v0.989h0.989v-0.989z"></path>
<path fill="#4d5ae5" d="M16.696 24.477h-0.989v0.989h0.989v-0.989z"></path>
<path fill="#4d5ae5" d="M17.685 23.487h-0.989v0.989h0.989v-0.989z"></path>
<path fill="#4d5ae5" d="M15.706 23.487h-0.989v0.989h0.989v-0.989z"></path>
<path fill="#4d5ae5" d="M7.296 5.678h-0.989v0.989h0.989v-0.989z"></path>
<path fill="#4d5ae5" d="M7.296 7.657h-0.989v0.989h0.989v-0.989z"></path>
<path fill="#4d5ae5" d="M8.286 6.668h-0.989v0.989h0.989v-0.989z"></path>
<path fill="#4d5ae5" d="M6.307 6.668h-0.989v0.989h0.989v-0.989z"></path>
<path fill="#2e2f42" d="M24.779 13.133c-0.267-0.36-0.658-0.591-1.102-0.653-0.446-0.063-0.887 0.054-1.243 0.326l-1.162 0.89-1.76 1.314-1.259-0.502c2.246-1.008 3.816-3.254 3.816-5.862 0-3.546-2.896-6.431-6.457-6.431s-6.457 2.885-6.457 6.431c0 1.285 0.384 2.48 1.039 3.486l-2.564-0.022c-0.001 0-0.003 0-0.004 0-0.008 0-0.014 0.004-0.022 0.005-0.049 0.002-0.097 0.012-0.144 0.029-0.012 0.005-0.024 0.007-0.036 0.012-0.006 0.002-0.012 0.003-0.018 0.006l-2.999 1.481c-0.001 0-0.001 0-0.001 0l-1.756 0.845c-0.019 0.008-0.039 0.020-0.058 0.033-0.7 0.466-0.938 1.381-0.555 2.129 0.204 0.398 0.552 0.691 0.979 0.825 0.165 0.051 0.333 0.077 0.5 0.077 0.269 0 0.535-0.066 0.779-0.196l1.287-0.685 2.1-1.084 1.259-0.007-5.047 5.023c-0 0-0.001 0-0.002 0.001l-1.242 1.237c-0.293 0.292-0.455 0.679-0.455 1.092s0.161 0.801 0.455 1.093c0.301 0.3 0.698 0.45 1.094 0.45s0.792-0.15 1.095-0.45l1.219-1.214 1.615-1.206 0.836 0.832-1.634 1.627c-0 0.001-0.001 0.001-0.002 0.001l-1.242 1.237c-0.293 0.292-0.455 0.679-0.455 1.092s0.161 0.801 0.455 1.093c0.301 0.3 0.698 0.45 1.094 0.45s0.793-0.15 1.095-0.45l3.229-3.215c0.001-0.001 0.001-0.001 0.001-0.002l0.936-0.928-0.003-0.003c0.006-0.006 0.014-0.008 0.020-0.014l4.792-5.248 3.219 0.458c0.023 0.003 0.046 0.005 0.070 0.005 0.060 0 0.118-0.014 0.174-0.036 0.016-0.006 0.031-0.014 0.046-0.022 0.018-0.009 0.037-0.014 0.053-0.025l2.98-1.979c0.011-0.007 0.017-0.019 0.027-0.027 0.012-0.009 0.027-0.013 0.038-0.024l1.179-1.105c0.614-0.575 0.698-1.517 0.197-2.191zM3.831 16.482c-0.161 0.086-0.343 0.103-0.518 0.048-0.173-0.054-0.314-0.172-0.396-0.332-0.149-0.291-0.063-0.645 0.199-0.837l1.218-0.586 0.417 1.217-0.92 0.489zM7.075 14.787l-1.436 0.742-0.407-1.19 1.88-0.928-0.037 1.376zM21.080 8.646c0 0.852-0.203 1.655-0.556 2.374l-3.878-1.762c-0.041-0.532-0.317-0.997-0.731-1.287l1.358-4.508c2.205 0.702 3.807 2.759 3.807 5.183zM10.145 8.646c0-3 2.453-5.442 5.467-5.442 0.235 0 0.464 0.020 0.691 0.048l-1.328 4.409c-0.018-0-0.035-0.005-0.053-0.005-0.958 0-1.737 0.777-1.737 1.731s0.779 1.731 1.737 1.731c0.644 0 1.201-0.356 1.501-0.876l3.583 1.628c-0.997 1.342-2.592 2.217-4.393 2.217-3.015 0-5.467-2.441-5.467-5.442zM15.67 9.389c0 0.409-0.335 0.742-0.748 0.742s-0.748-0.333-0.748-0.742c0-0.409 0.335-0.742 0.748-0.742s0.748 0.333 0.748 0.742zM4.141 23.324c-0.219 0.217-0.574 0.217-0.792 0-0.105-0.105-0.163-0.244-0.163-0.392s0.058-0.286 0.163-0.391l0.892-0.889 0.79 0.786-0.889 0.885zM7.122 26.787c-0.219 0.217-0.574 0.218-0.793 0-0.105-0.105-0.163-0.244-0.163-0.392s0.058-0.286 0.163-0.391l0.893-0.889 0.79 0.786-0.89 0.886zM10.352 23.569c-0.001 0-0.001 0-0.002 0.001l-1.637 1.632-0.79-0.786 1.635-1.628c0 0 0 0 0-0s0.001-0 0.002-0.001c0.037-0.037 0.060-0.082 0.083-0.126 0.006-0.013 0.019-0.024 0.024-0.037 0.015-0.038 0.018-0.079 0.024-0.119 0.003-0.023 0.013-0.044 0.013-0.067 0-0.033-0.012-0.065-0.019-0.098-0.006-0.030-0.006-0.060-0.017-0.089-0.019-0.047-0.051-0.088-0.085-0.128-0.009-0.011-0.013-0.025-0.023-0.035 0 0 0 0-0.001 0s-0.001-0.002-0.001-0.002l-1.491-1.484c-0.016-0.016-0.036-0.022-0.054-0.036-0.026-0.020-0.051-0.039-0.081-0.053-0.028-0.014-0.057-0.022-0.087-0.030-0.032-0.009-0.062-0.016-0.096-0.018-0.030-0.002-0.058 0.001-0.089 0.004-0.033 0.004-0.064 0.008-0.096 0.019-0.031 0.010-0.059 0.025-0.088 0.042-0.018 0.010-0.039 0.014-0.056 0.027l-1.645 1.228-0.836-0.832 2.225-2.213 4.045 3.978-0.86 0.852zM16.676 17.061c-0.014-0.002-0.028 0.003-0.042 0.003-0.036-0.002-0.071 0-0.107 0.006-0.028 0.005-0.055 0.010-0.082 0.020-0.032 0.011-0.060 0.026-0.090 0.044-0.028 0.017-0.053 0.035-0.077 0.057-0.012 0.010-0.026 0.015-0.037 0.027l-4.358 4.773-4.014-3.948 2.628-2.614c0.193-0.193 0.194-0.506 0.001-0.7-0.097-0.097-0.226-0.145-0.354-0.145v-0l-2.058 0.012 0.026-1.491 2.879 0.025c1.173 1.2 2.81 1.949 4.62 1.949 0.406 0 0.801-0.042 1.187-0.114 0.037 0.030 0.074 0.060 0.12 0.079l2.235 0.89 0.141 0.703 0.165 0.821-2.785-0.396zM20.425 17.226l-0.29-1.445 1.342-1.002 0.878 1.165-1.929 1.281zM23.906 14.601l-0.777 0.728-0.864-1.147 0.771-0.591c0.144-0.111 0.326-0.156 0.504-0.133 0.179 0.025 0.337 0.119 0.445 0.264 0.201 0.271 0.167 0.648-0.079 0.879z"></path>
<path fill="#2e2f42" d="M14.471 17.2l-1.988-1.979c-0.192-0.192-0.505-0.192-0.698 0l-1.987 1.979c-0.093 0.093-0.145 0.219-0.145 0.351s0.052 0.258 0.145 0.351l1.987 1.979c0.096 0.096 0.223 0.144 0.349 0.144s0.253-0.048 0.349-0.144l1.988-1.979c0.093-0.093 0.146-0.219 0.146-0.351s-0.052-0.258-0.146-0.351zM12.135 18.832l-1.286-1.281 1.286-1.281 1.287 1.281-1.287 1.281z"></path>
<path fill="#2e2f42" d="M17.776 4.703l-0.239 0.961c0.066 0.016 1.612 0.419 1.612 1.993h0.989c-0-1.871-1.545-2.751-2.362-2.954z"></path>
<path fill="#2e2f42" d="M20.138 8.646h-0.989v0.989h0.989v-0.989z"></path>
</svg>
